<svg xmlns="http://www.w3.org/2000/svg" width="143" height="59" viewBox="0 0 143 59">
<g>
<path d="M 11.57 40.00 L 9.75 47.00 L 5.88 47.00 C3.74,47.00 2.00,46.60 2.00,46.11 C2.00,44.79 8.88,16.49 9.82,13.96 L 10.63 11.78 L 12.18 14.15 C13.04,15.46 15.42,19.88 17.48,23.97 C19.42,27.81 20.38,29.98 21.48,30.04 C22.72,30.12 24.14,27.46 27.35,21.43 C27.63,20.90 27.93,20.34 28.25,19.75 C30.52,15.49 32.65,12.00 32.98,12.00 C33.30,12.00 35.31,19.09 37.45,27.75 C39.58,36.41 41.54,44.32 41.80,45.31 C42.21,46.89 41.70,47.09 37.92,46.81 L 33.56 46.50 L 32.00 40.30 C31.13,36.89 30.13,33.80 29.76,33.43 C29.40,33.06 27.63,35.74 25.83,39.38 C24.04,43.02 22.21,46.00 21.78,46.00 C21.34,46.00 19.54,43.08 17.78,39.50 C16.01,35.92 14.30,33.00 13.98,33.00 C13.65,33.00 12.57,36.15 11.57,40.00 ZM 81.00 39.00 L 81.00 47.00 L 72.00 47.00 L 72.00 11.00 L 81.00 11.00 L 81.00 18.00 C81.00,21.85 81.34,24.99 81.75,24.98 C82.16,24.97 84.71,21.82 87.40,17.98 L 92.31 11.00 L 97.20 11.00 C97.55,11.00 97.88,11.00 98.19,10.99 C99.86,10.98 100.88,10.97 101.16,11.43 C101.60,12.12 100.30,13.91 97.01,18.45 C96.62,18.99 96.20,19.57 95.75,20.18 C93.14,23.80 91.00,27.28 91.00,27.92 C91.00,28.55 93.71,33.11 97.03,38.04 L 103.05 47.00 L 92.50 46.97 L 87.52 38.99 C84.78,34.59 82.19,31.00 81.77,31.00 C81.35,31.00 81.00,34.60 81.00,39.00 ZM 66.90 43.85 L 65.80 47.00 L 46.00 47.00 L 46.00 11.00 L 65.77 11.00 L 66.27 14.25 C66.54,16.04 66.56,17.84 66.32,18.25 C66.08,18.66 63.21,19.00 59.94,19.00 C54.27,19.00 54.00,19.11 54.00,21.50 C54.00,23.83 54.33,24.00 58.98,24.00 L 63.95 24.00 L 63.65 27.75 C63.35,31.46 63.30,31.50 58.61,31.81 L 53.89 32.11 L 54.50 39.50 L 61.25 39.80 C64.96,39.96 68.00,40.23 68.00,40.40 C68.00,40.56 67.51,42.12 66.90,43.85 ZM 117.62 35.09 C115.90,35.77 112.95,37.46 111.06,38.86 C107.68,41.35 107.74,41.16 115.16,27.00 C119.30,19.08 123.11,12.46 123.63,12.29 C124.61,11.96 133.72,29.64 132.94,30.36 C132.70,30.58 131.04,31.08 129.25,31.46 C126.76,32.00 125.86,31.79 125.39,30.58 C124.52,28.30 123.12,28.64 121.85,31.43 C121.24,32.77 119.34,34.42 117.62,35.09 ZM 142.00 46.47 C142.00,46.76 140.07,47.00 137.71,47.00 C133.50,47.00 133.37,46.90 130.71,41.48 C129.22,38.44 128.00,35.75 128.00,35.50 C128.00,34.48 133.70,32.20 134.68,32.82 C135.66,33.45 142.00,45.27 142.00,46.47 Z" fill="rgb(32,27,25)"/>
<path d="M 117.62 35.09 C118.95,34.57 120.38,33.47 121.25,32.38 C121.09,32.75 121.00,33.09 121.00,33.34 C121.00,33.60 121.90,33.58 123.00,33.29 C124.41,32.92 125.28,30.90 124.99,29.77 C125.13,29.99 125.27,30.26 125.39,30.58 C125.86,31.79 126.76,32.00 129.25,31.46 C131.04,31.08 132.70,30.58 132.94,30.36 C133.28,30.04 131.75,26.52 129.82,22.66 C133.33,29.01 137.48,36.85 139.92,41.75 C137.98,37.95 135.29,33.21 134.68,32.82 C133.70,32.20 128.00,34.48 128.00,35.50 C128.00,35.75 129.22,38.44 130.71,41.48 C129.23,38.46 127.51,36.00 126.88,36.00 C124.82,36.00 119.48,39.83 115.78,43.96 C113.78,46.18 111.33,47.95 110.32,47.88 C106.77,47.66 104.86,46.81 105.30,45.66 C106.04,43.74 111.08,34.32 115.69,25.98 C115.51,26.31 115.33,26.65 115.16,27.00 C107.74,41.16 107.68,41.35 111.06,38.86 C112.95,37.46 115.90,35.77 117.62,35.09 ZM 123.66 29.14 C123.25,29.39 122.74,29.96 122.26,30.61 C122.73,29.79 123.21,29.30 123.66,29.14 ZM 141.84 45.85 C141.94,46.13 142.00,46.32 142.00,46.41 C142.00,46.42 142.00,46.43 142.00,46.43 C141.99,46.31 141.93,46.11 141.84,45.85 Z" fill="rgb(144,69,65)"/>
<path d="M 137.20 36.42 C134.95,32.09 132.23,27.02 129.82,22.66 C127.36,17.72 124.26,12.23 123.65,12.28 C124.12,12.13 126.53,15.94 129.00,20.75 C132.88,28.29 133.92,29.58 136.50,30.05 C139.31,30.58 139.36,30.66 137.27,31.37 L 135.04 32.12 ZM 115.71 25.95 L 115.69 25.98 C115.23,26.81 114.76,27.66 114.30,28.50 C114.77,27.65 115.24,26.79 115.71,25.95 Z" fill="rgb(162,151,150)"/>
<path d="M 0.00 29.50 L 0.00 0.00 L 71.50 0.00 L 143.00 0.00 L 143.00 29.50 L 143.00 59.00 L 71.50 59.00 L 0.00 59.00 L 0.00 29.50 ZM 115.78 43.96 C119.48,39.83 124.82,36.00 126.88,36.00 C127.51,36.00 129.24,38.47 130.72,41.50 C133.36,46.89 133.50,47.00 137.71,47.00 C140.07,47.00 142.00,46.76 142.00,46.48 C142.00,46.19 140.43,42.84 138.52,39.04 L 135.04 32.12 L 137.27 31.37 C139.36,30.66 139.31,30.58 136.50,30.05 C133.92,29.58 132.88,28.29 129.00,20.75 C126.53,15.94 124.12,12.13 123.65,12.28 C122.94,12.52 106.66,42.13 105.30,45.66 C104.86,46.81 106.77,47.66 110.32,47.88 C111.33,47.95 113.78,46.18 115.78,43.96 ZM 11.57 40.00 C12.57,36.15 13.65,33.00 13.98,33.00 C14.30,33.00 16.01,35.92 17.78,39.50 C19.54,43.08 21.34,46.00 21.78,46.00 C22.21,46.00 24.04,43.02 25.83,39.38 C27.63,35.74 29.40,33.06 29.76,33.43 C30.13,33.80 31.13,36.89 32.00,40.30 L 33.56 46.50 L 37.92 46.81 C41.70,47.09 42.21,46.89 41.80,45.31 C41.54,44.32 39.58,36.41 37.45,27.75 C35.31,19.09 33.30,12.00 32.98,12.00 C32.65,12.00 30.52,15.49 28.25,19.75 C21.29,32.78 21.82,32.58 17.48,23.97 C15.42,19.88 13.04,15.46 12.18,14.15 L 10.63 11.78 L 9.82 13.96 C8.88,16.49 2.00,44.79 2.00,46.11 C2.00,46.60 3.74,47.00 5.88,47.00 L 9.75 47.00 L 11.57 40.00 ZM 66.90 43.85 C67.51,42.12 68.00,40.56 68.00,40.40 C68.00,40.23 64.96,39.96 61.25,39.80 L 54.50 39.50 L 54.19 35.81 L 53.89 32.11 L 58.61 31.81 C63.30,31.50 63.35,31.46 63.65,27.75 L 63.95 24.00 L 58.98 24.00 C54.33,24.00 54.00,23.83 54.00,21.50 C54.00,19.11 54.27,19.00 59.94,19.00 C63.21,19.00 66.08,18.66 66.32,18.25 C66.56,17.84 66.54,16.04 66.27,14.25 L 65.77 11.00 L 55.89 11.00 L 46.00 11.00 L 46.00 29.00 L 46.00 47.00 L 55.90 47.00 L 65.80 47.00 L 66.90 43.85 ZM 81.00 39.00 C81.00,34.60 81.35,31.00 81.77,31.00 C82.19,31.00 84.78,34.59 87.52,38.99 L 92.50 46.97 L 97.78 46.99 L 103.05 47.00 L 97.03 38.04 C93.71,33.11 91.00,28.55 91.00,27.92 C91.00,27.28 93.14,23.80 95.75,20.18 C102.86,10.34 102.76,11.00 97.20,11.00 L 92.31 11.00 L 87.40 17.98 C84.71,21.82 82.16,24.97 81.75,24.98 C81.34,24.99 81.00,21.85 81.00,18.00 L 81.00 11.00 L 76.50 11.00 L 72.00 11.00 L 72.00 29.00 L 72.00 47.00 L 76.50 47.00 L 81.00 47.00 L 81.00 39.00 ZM 121.00 33.34 C121.00,32.11 123.18,29.00 124.04,29.00 C125.89,29.00 124.98,32.77 123.00,33.29 C121.90,33.58 121.00,33.60 121.00,33.34 Z" fill="rgb(253,253,253)"/>
</g>
</svg>